<svg width="20" height="20" viewBox="0 0 20 20" fill="none" xmlns="http://www.w3.org/2000/svg">
<g id="icon:twitter">
<path id="Vector" d="M19.3275 5.38625C19.2802 5.27204 19.2001 5.17441 19.0973 5.10572C18.9946 5.03702 18.8737 5.00034 18.7501 5.00032H16.3728C16.0404 4.43483 15.5673 3.96497 14.9996 3.63641C14.4319 3.30786 13.7888 3.13178 13.1329 3.12532C12.6443 3.11891 12.1593 3.21029 11.7064 3.39411C11.2536 3.57792 10.8422 3.85043 10.4962 4.19563C10.1402 4.54502 9.85759 4.96207 9.66506 5.42226C9.47253 5.88244 9.37395 6.37648 9.37512 6.87532V7.3511C6.22981 6.52141 3.65715 3.96282 3.62981 3.93547C3.54596 3.85088 3.43968 3.79201 3.32349 3.76579C3.20731 3.73957 3.08605 3.7471 2.974 3.78749C2.86194 3.82788 2.76376 3.89944 2.69102 3.99376C2.61828 4.08807 2.574 4.20121 2.5634 4.31985C2.22668 8.05344 3.31106 10.5519 4.28215 11.9902C4.75565 12.7012 5.33167 13.3383 5.99153 13.8808C4.80168 15.2503 2.92825 15.9698 2.90793 15.9777C2.81974 16.0107 2.74015 16.0632 2.67512 16.1313C2.61008 16.1995 2.56128 16.2814 2.53236 16.371C2.50343 16.4606 2.49514 16.5556 2.50809 16.6489C2.52104 16.7422 2.55491 16.8313 2.60715 16.9097C2.66575 16.9972 2.90012 17.3042 3.47278 17.5909C4.18059 17.9456 5.11575 18.1253 6.25012 18.1253C11.7712 18.1253 16.3845 13.8738 16.8556 8.40344L19.1923 6.0675C19.2797 5.98005 19.3392 5.86864 19.3632 5.74738C19.3873 5.62612 19.3748 5.50044 19.3275 5.38625ZM15.8118 7.68391C15.7047 7.79133 15.6403 7.93405 15.6306 8.08547C15.3126 13.0144 11.1939 16.8753 6.25012 16.8753C5.42512 16.8753 4.84387 16.7659 4.43606 16.6347C5.33528 16.1464 6.58918 15.3066 7.39543 14.0972C7.44275 14.0261 7.475 13.946 7.49017 13.862C7.50534 13.7779 7.50312 13.6916 7.48365 13.6085C7.46417 13.5253 7.42786 13.447 7.37694 13.3784C7.32603 13.3098 7.26159 13.2524 7.18762 13.2097C7.1509 13.1886 3.75715 11.1519 3.75012 5.70969C5.00012 6.72532 7.28528 8.3011 9.89621 8.74016C9.9857 8.75525 10.0774 8.75067 10.1649 8.72674C10.2525 8.70281 10.3337 8.6601 10.4031 8.60159C10.4725 8.54308 10.5283 8.47017 10.5666 8.38792C10.6049 8.30567 10.6249 8.21606 10.6251 8.12532V6.87532C10.6244 6.54192 10.6904 6.21174 10.8192 5.90423C10.948 5.59671 11.137 5.31807 11.3751 5.08469C11.6034 4.85602 11.8751 4.67542 12.1744 4.55358C12.4736 4.43174 12.7942 4.37112 13.1173 4.37532C14.1064 4.38782 15.0306 4.99094 15.4173 5.8761C15.4661 5.98738 15.5462 6.08205 15.6479 6.14851C15.7496 6.21497 15.8685 6.25035 15.99 6.25032H17.24L15.8118 7.68391Z" fill="white"/>
</g>
</svg>
