<svg width="18" height="14" viewBox="0 0 18 14" fill="none" xmlns="http://www.w3.org/2000/svg">
<path id="Vector" fill-rule="evenodd" clip-rule="evenodd" d="M7.27934 0.21934C7.41979 0.359965 7.49868 0.550589 7.49868 0.74934C7.49868 0.948091 7.41979 1.13871 7.27934 1.27934L2.55934 5.99934H16.7493C16.9483 5.99934 17.139 6.07836 17.2797 6.21901C17.4203 6.35966 17.4993 6.55043 17.4993 6.74934C17.4993 6.94825 17.4203 7.13902 17.2797 7.27967C17.139 7.42032 16.9483 7.49934 16.7493 7.49934H2.55934L7.27934 12.2193C7.35303 12.288 7.41213 12.3708 7.45312 12.4628C7.49411 12.5548 7.51616 12.6541 7.51793 12.7548C7.51971 12.8555 7.50118 12.9555 7.46346 13.0489C7.42574 13.1423 7.3696 13.2272 7.29838 13.2984C7.22716 13.3696 7.14233 13.4257 7.04894 13.4635C6.95555 13.5012 6.85552 13.5197 6.75482 13.5179C6.65412 13.5162 6.5548 13.4941 6.4628 13.4531C6.3708 13.4121 6.288 13.353 6.21934 13.2793L0.21934 7.27934C0.0788896 7.13871 0 6.94809 0 6.74934C0 6.55059 0.0788896 6.35997 0.21934 6.21934L6.21934 0.21934C6.35997 0.0788894 6.55059 0 6.74934 0C6.94809 0 7.13871 0.0788894 7.27934 0.21934Z" fill="black"/>
</svg>
