<svg width="18" height="14" viewBox="0 0 18 14" fill="none" xmlns="http://www.w3.org/2000/svg">
<path id="Vector" fill-rule="evenodd" clip-rule="evenodd" d="M10.2202 0.21934C10.0797 0.359965 10.0008 0.550589 10.0008 0.74934C10.0008 0.948091 10.0797 1.13871 10.2202 1.27934L14.9402 5.99934H0.750172C0.55126 5.99934 0.360493 6.07836 0.219841 6.21901C0.0791893 6.35966 0.000171661 6.55043 0.000171661 6.74934C0.000171661 6.94825 0.0791893 7.13902 0.219841 7.27967C0.360493 7.42032 0.55126 7.49934 0.750172 7.49934H14.9402L10.2202 12.2193C10.1465 12.288 10.0874 12.3708 10.0464 12.4628C10.0054 12.5548 9.98336 12.6541 9.98158 12.7548C9.9798 12.8555 9.99833 12.9555 10.036 13.0489C10.0738 13.1423 10.1299 13.2272 10.2011 13.2984C10.2724 13.3696 10.3572 13.4257 10.4506 13.4635C10.544 13.5012 10.644 13.5197 10.7447 13.5179C10.8454 13.5162 10.9447 13.4941 11.0367 13.4531C11.1287 13.4121 11.2115 13.353 11.2802 13.2793L17.2802 7.27934C17.4206 7.13871 17.4995 6.94809 17.4995 6.74934C17.4995 6.55059 17.4206 6.35997 17.2802 6.21934L11.2802 0.21934C11.1395 0.0788894 10.9489 0 10.7502 0C10.5514 0 10.3608 0.0788894 10.2202 0.21934Z" fill="black"/>
</svg>
